<svg width="30" height="30" viewBox="0 0 50 50" fill="none" xmlns="http://www.w3.org/2000/svg">
<path d="M49 27.1622C48.5796 31.711 46.8724 36.0461 44.0782 39.6601C41.284 43.2741 37.5183 46.0176 33.2217 47.5696C28.9252 49.1215 24.2755 49.4177 19.8168 48.4235C15.358 47.4293 11.2746 45.1859 8.04439 41.9556C4.81415 38.7254 2.57068 34.642 1.57648 30.1832C0.58229 25.7245 0.878493 21.0748 2.43044 16.7783C3.98238 12.4817 6.72587 8.71601 10.3399 5.92178C13.9539 3.12755 18.289 1.42037 22.8378 1C20.1746 4.60302 18.8931 9.04226 19.2263 13.5103C19.5595 17.9784 21.4853 22.1784 24.6534 25.3466C27.8216 28.5147 32.0216 30.4406 36.4897 30.7737C40.9577 31.1069 45.397 29.8254 49 27.1622V27.1622Z" stroke="#F0CB46" stroke-width="2" stroke-linecap="round" stroke-linejoin="round"/>
</svg>
